<?xml version="1.0" standalone="no"?>
<!DOCTYPE svg PUBLIC "-//W3C//DTD SVG 20010904//EN"
 "http://www.w3.org/TR/2001/REC-SVG-20010904/DTD/svg10.dtd">
<svg version="1.0" xmlns="http://www.w3.org/2000/svg"
 width="512.000000pt" height="512.000000pt" viewBox="0 0 512.000000 512.000000"
 preserveAspectRatio="xMidYMid meet">

<g transform="translate(0.000000,512.000000) scale(0.100000,-0.100000)"
fill="#000000" stroke="none">
<path d="M2214 5028 c-763 -42 -1244 -444 -1360 -1133 -47 -287 -26 -572 80
-1035 56 -247 70 -362 71 -570 0 -146 -4 -202 -19 -265 -52 -224 -162 -339
-324 -338 -88 1 -189 51 -287 145 l-73 69 -8 -68 c-5 -37 -8 -126 -7 -198 4
-371 150 -660 425 -839 15 -10 40 -41 56 -69 58 -104 216 -230 361 -292 135
-56 351 -95 426 -76 24 6 46 11 49 11 3 0 6 -83 6 -185 l0 -185 170 0 170 0 0
258 0 257 36 24 c95 65 172 189 200 321 13 63 14 93 4 189 -6 62 -18 146 -27
187 -16 73 -16 74 -82 123 -283 210 -495 487 -586 765 -60 185 -77 415 -41
561 9 39 17 107 17 153 l0 82 39 20 c99 51 246 64 368 33 36 -9 61 -18 54 -21
-17 -5 -15 -22 2 -22 22 0 56 -49 56 -80 0 -15 -9 -39 -21 -54 -28 -36 -1 -36
35 0 28 29 34 70 15 106 -19 35 94 -34 177 -108 59 -52 78 -64 106 -64 47 0
78 34 78 85 0 35 -6 46 -62 97 -33 32 -90 77 -124 101 -35 23 -64 49 -64 58 0
9 14 35 30 58 44 60 48 90 15 129 -40 47 -86 45 -135 -7 -21 -22 -46 -58 -56
-80 -15 -33 -23 -40 -39 -36 -11 3 -37 8 -58 11 -47 8 -64 40 -47 87 5 17 10
47 10 68 0 68 -77 103 -133 59 -29 -23 -48 -72 -56 -149 l-6 -55 -61 -12 c-33
-7 -83 -21 -111 -32 l-51 -19 -36 133 c-21 74 -42 176 -47 227 -5 50 -21 169
-35 262 -30 209 -30 246 0 311 44 94 53 99 675 348 l571 228 571 -228 c622
-249 631 -254 675 -348 30 -65 30 -109 0 -310 -14 -89 -29 -203 -35 -253 -12
-111 -79 -363 -96 -363 -7 0 -29 7 -50 15 -20 9 -64 22 -98 28 l-62 13 -6 55
c-8 77 -27 126 -56 149 -56 44 -133 9 -133 -59 0 -21 5 -51 10 -68 17 -47 0
-79 -47 -87 -21 -3 -47 -8 -58 -11 -16 -4 -24 3 -39 36 -10 23 -38 61 -61 85
-51 54 -97 60 -135 19 -35 -38 -31 -80 13 -138 20 -27 37 -56 37 -65 0 -9 -29
-36 -64 -59 -34 -24 -91 -69 -124 -101 -56 -52 -62 -61 -62 -98 0 -50 31 -84
78 -84 25 0 48 14 105 63 84 74 208 152 183 115 -25 -35 -20 -81 10 -112 36
-36 63 -36 35 0 -12 15 -21 39 -21 54 0 31 34 80 56 80 17 0 19 17 2 22 -7 3
18 12 54 21 122 31 269 18 367 -32 38 -20 38 -20 33 -73 -2 -33 5 -99 18 -168
92 -475 -130 -963 -607 -1329 -82 -63 -82 -64 -97 -130 -71 -317 -31 -514 138
-668 32 -29 62 -53 67 -53 5 0 9 -109 9 -260 l0 -260 170 0 170 0 0 185 c0
201 -1 196 56 175 20 -8 56 -8 123 0 177 22 350 85 476 174 72 52 170 155 193
203 9 19 45 54 86 85 235 172 358 404 386 725 7 75 7 151 0 226 -5 61 -10 116
-10 121 0 5 -33 -23 -74 -62 -142 -134 -280 -176 -403 -122 -140 60 -217 231
-230 505 -9 208 16 402 101 775 86 380 98 692 36 987 -96 463 -385 797 -821
951 -107 38 -283 77 -411 92 -113 13 -626 18 -804 8z"/>
<path d="M2502 4307 c-18 -19 -22 -35 -22 -94 0 -87 4 -100 42 -119 36 -18 70
-12 98 18 16 18 20 35 20 98 0 67 -3 79 -23 98 -32 30 -87 29 -115 -1z"/>
<path d="M2430 1949 c-87 -33 -148 -48 -223 -55 l-70 -7 44 -35 c24 -19 96
-88 159 -152 120 -123 148 -140 230 -140 48 0 109 30 145 70 93 104 147 158
203 203 l64 52 -89 12 c-49 6 -109 19 -133 28 -111 41 -140 47 -171 36 -19 -7
-38 -7 -55 -1 -34 13 -40 13 -104 -11z"/>
</g>
</svg>
